<?xml version="1.0" encoding="UTF-8" standalone="no"?>
<!-- Created with Inkscape (http://www.inkscape.org/) -->

<svg
   width="120"
   height="120"
   viewBox="0 0 120 120"
   version="1.1"
   id="svg1"
   xml:space="preserve"
   inkscape:version="1.3.2 (091e20e, 2023-11-25, custom)"
   sodipodi:docname="facebook.svg"
   xmlns:inkscape="http://www.inkscape.org/namespaces/inkscape"
   xmlns:sodipodi="http://sodipodi.sourceforge.net/DTD/sodipodi-0.dtd"
   xmlns="http://www.w3.org/2000/svg"
   xmlns:svg="http://www.w3.org/2000/svg"><sodipodi:namedview
     id="namedview1"
     pagecolor="#505050"
     bordercolor="#eeeeee"
     borderopacity="1"
     inkscape:showpageshadow="0"
     inkscape:pageopacity="0"
     inkscape:pagecheckerboard="0"
     inkscape:deskcolor="#505050"
     inkscape:document-units="px"
     inkscape:zoom="4.3942712"
     inkscape:cx="60.078222"
     inkscape:cy="60.192006"
     inkscape:window-width="2560"
     inkscape:window-height="1494"
     inkscape:window-x="-11"
     inkscape:window-y="-11"
     inkscape:window-maximized="1"
     inkscape:current-layer="layer1" /><defs
     id="defs1" /><g
     inkscape:label="Layer 1"
     inkscape:groupmode="layer"
     id="layer1"><path
       style="fill:#ffffff;fill-opacity:1"
       d="M 5.84569,119.96004 C 4.41095,119.79794 3.03478,119.13222 1.97583,118.08801 0.9042,117.03128 0.24743,115.71342 0.053,114.22967 0.0053,113.86609 0,108.36625 0,60 0,11.788412 0.005,6.132743 0.0527,5.770327 0.44066,2.790235 2.78707,0.443964 5.77035,0.053022 6.13393,0.005382 11.63377,2e-6 60.00002,2e-6 c 48.21159,0 53.86726,0.0055 54.22967,0.05267 2.98103,0.388079 5.32624,2.733435 5.71731,5.717653 0.0476,0.363578 0.053,5.863423 0.053,54.229673 0,47.517822 -0.006,53.870462 -0.0512,54.212532 -0.25879,1.96044 -1.31113,3.63039 -2.98314,4.73393 -0.58248,0.38444 -1.46701,0.75596 -2.14285,0.90004 -0.74584,0.159 -0.003,0.15212 -16.5,0.15283 L 82.8,120 V 96.754286 73.508571 h 7.8 c 4.68971,0 7.8,-0.0125 7.8,-0.03135 0,-0.04732 2.29217,-17.834225 2.31227,-17.942938 l 0.0174,-0.09429 h -8.96601 -8.96602 l 0.0113,-6.574286 c 0.0103,-5.975811 0.0167,-6.6189 0.0706,-7.064381 0.1653,-1.366242 0.42575,-2.354539 0.83765,-3.178476 1.08911,-2.178628 3.20509,-3.29732 6.71139,-3.548229 0.28897,-0.02068 2.55741,-0.0344 5.7,-0.03449 l 5.22,-1.39e-4 v -8.092505 c 0,-6.443564 -0.009,-8.095401 -0.0429,-8.10672 -0.13472,-0.04469 -2.16371,-0.232435 -3.69429,-0.341835 -3.06468,-0.219055 -5.58461,-0.319535 -8.77714,-0.349984 -2.24843,-0.02144 -3.08564,-7.8e-5 -4.29819,0.10969 -4.67686,0.423381 -8.72134,1.878802 -11.97151,4.307992 -0.75394,0.5635 -1.35079,1.083473 -2.07549,1.808174 -1.18621,1.186212 -2.12704,2.395569 -3.01586,3.876617 -0.30556,0.509162 -0.98345,1.846298 -1.2341,2.434285 -1.09345,2.564982 -1.79747,5.534102 -2.02021,8.52 -0.0211,0.282857 -0.0475,0.568286 -0.0586,0.634286 -0.0111,0.066 -0.0299,3.599143 -0.0417,7.851429 l -0.0215,7.731428 -7.80857,0.0086 -7.80858,0.0086 v 9.034138 9.034137 l 7.80858,0.0086 7.80857,0.0086 0.009,23.237143 0.009,23.237143 -28.99717,-0.004 c -17.01699,-0.003 -29.11049,-0.0173 -29.27145,-0.0355 z"
       id="path1" /></g></svg>
