<?xml version="1.0" encoding="UTF-8" standalone="no"?>
<!-- Created with Inkscape (http://www.inkscape.org/) -->

<svg
   width="120"
   height="120"
   viewBox="0 0 120 120"
   version="1.1"
   id="svg1"
   xml:space="preserve"
   inkscape:version="1.3.2 (091e20e, 2023-11-25, custom)"
   sodipodi:docname="instagram.svg"
   xmlns:inkscape="http://www.inkscape.org/namespaces/inkscape"
   xmlns:sodipodi="http://sodipodi.sourceforge.net/DTD/sodipodi-0.dtd"
   xmlns="http://www.w3.org/2000/svg"
   xmlns:svg="http://www.w3.org/2000/svg"><sodipodi:namedview
     id="namedview1"
     pagecolor="#505050"
     bordercolor="#eeeeee"
     borderopacity="1"
     inkscape:showpageshadow="0"
     inkscape:pageopacity="0"
     inkscape:pagecheckerboard="0"
     inkscape:deskcolor="#505050"
     inkscape:document-units="px"
     inkscape:zoom="2.2486095"
     inkscape:cx="60.037103"
     inkscape:cy="59.814743"
     inkscape:window-width="2560"
     inkscape:window-height="1494"
     inkscape:window-x="-11"
     inkscape:window-y="-11"
     inkscape:window-maximized="1"
     inkscape:current-layer="layer1" /><defs
     id="defs1" /><g
     inkscape:label="Layer 1"
     inkscape:groupmode="layer"
     id="layer1"><path
       style="fill:#ffffff;fill-opacity:1"
       d="m 30.472676,107.71025 c -1.110348,-0.17105 -2.696405,-0.53669 -3.52457,-0.81254 -1.495437,-0.4981 -5.153996,-2.2358 -5.381476,-2.55603 -0.06534,-0.092 -0.488874,-0.41526 -0.941194,-0.71841 -1.548902,-1.0381 -4.564236,-4.386581 -5.746161,-6.381029 -1.262721,-2.130787 -2.30938,-4.948206 -2.712159,-7.300644 -0.176388,-1.0302 -0.232727,-10.554512 -0.183234,-30.976493 l 0.07147,-29.488908 0.520331,-1.644799 c 1.244614,-3.934307 4.057776,-8.300237 6.876324,-10.671816 3.034286,-2.553105 7.312274,-4.43074 11.277202,-4.949633 1.401909,-0.183469 10.507229,-0.237375 30.546279,-0.180843 28.091115,0.07925 28.575403,0.08836 30.193821,0.568305 2.507654,0.743645 3.999114,1.367311 5.717684,2.390897 5.971437,3.556594 9.848357,9.538207 10.608547,16.36766 0.31766,2.853828 0.31669,54.74368 -0.001,57.51712 -0.31018,2.707272 -1.36195,5.915464 -2.75133,8.39235 -0.8306,1.480723 -1.72924,2.604944 -3.47473,4.346973 -3.078547,3.07243 -5.685017,4.59743 -10.125727,5.92439 -1.284348,0.38379 -3.440138,0.41586 -30.167185,0.44889 -22.849392,0.0282 -29.200227,-0.0286 -30.802808,-0.27544 z M 79.33597,94.435914 c 6.65021,-0.833866 12.094364,-5.343632 14.312696,-11.856188 l 0.640295,-1.879771 0.06779,-19.502231 C 94.401781,48.241436 94.340591,41.154451 94.17444,40.083577 93.589709,36.314893 92.020171,33.267027 89.256536,30.533562 87.207268,28.506665 85.21491,27.267623 82.540396,26.356813 L 80.660622,25.716655 H 59.865655 39.070689 l -1.879771,0.637841 c -4.512633,1.531222 -8.108137,4.714429 -10.127127,8.96585 -1.681085,3.539885 -1.585932,2.213899 -1.679877,23.409786 -0.05868,13.24046 -0.0038,19.762653 0.17791,21.134903 0.786832,5.942666 4.750668,11.090646 10.351492,13.443863 3.080243,1.294181 3.662051,1.327807 23.371075,1.350768 11.279174,0.01314 18.834717,-0.07117 20.051579,-0.223752 z M 40.012963,89.000267 c -2.942442,-0.561111 -6.415801,-3.124296 -7.814865,-5.767023 -1.526527,-2.883496 -1.469174,-1.980723 -1.466104,-23.077188 0.0023,-15.861773 0.06068,-19.383772 0.338568,-20.427832 1.050212,-3.945802 3.940099,-7.012407 7.812066,-8.289777 1.240889,-0.409372 2.472901,-0.434787 20.960758,-0.432393 16.131465,0.0021 19.835551,0.06117 20.723112,0.33057 3.867374,1.173834 7.108559,4.455115 8.107839,8.20814 0.473423,1.778047 0.474454,39.173524 0.0011,40.951144 -0.781437,2.934766 -3.148783,5.947897 -5.771354,7.345713 -2.756053,1.468961 -2.242522,1.437391 -22.911595,1.40851 -10.798346,-0.01509 -19.306335,-0.12149 -19.979525,-0.249864 z m 24.277588,-10.89054 c 5.489028,-1.292824 10.533563,-5.599025 12.692682,-10.834943 1.088235,-2.638998 1.327524,-3.950758 1.322955,-7.252309 -0.0049,-3.530494 -0.34531,-5.103515 -1.728935,-7.989027 -2.354242,-4.909708 -6.140341,-8.093928 -11.777199,-9.904967 -1.737412,-0.558205 -6.380371,-0.68172 -8.613882,-0.229153 -6.487948,1.314626 -11.97121,6.201343 -13.971321,12.451327 -3.478085,10.868384 3.635107,22.333359 14.955866,24.105721 1.76714,0.276661 5.178615,0.110564 7.119834,-0.346649 z m -7.596176,-5.175265 c -4.441154,-1.217601 -7.822022,-4.293471 -9.324328,-8.483152 -0.694853,-1.937831 -0.845317,-5.564604 -0.31534,-7.600949 1.143741,-4.394624 4.318493,-7.832058 8.609716,-9.322091 2.496942,-0.867008 5.938616,-0.869348 8.402465,-0.0057 4.024733,1.410761 7.047122,4.432132 8.382758,8.379936 0.697238,2.060859 0.784648,5.351458 0.202166,7.610635 -1.161442,4.50469 -4.948786,8.193439 -9.667992,9.416308 -1.714275,0.444213 -4.678884,0.446582 -6.289445,0.005 z M 81.508689,43.796177 c 2.251145,-1.164113 2.557316,-4.836755 0.535781,-6.426896 -3.589302,-2.823344 -8.477216,1.936415 -5.554961,5.409317 1.28717,1.529715 3.256671,1.929008 5.01918,1.017579 z"
       id="path1" /></g></svg>
