<?xml version="1.0" encoding="UTF-8" standalone="no"?>
<svg
   id="Mastodon"
   viewBox="0 0 24 24"
   version="1.1"
   sodipodi:docname="mastodon.svg"
   inkscape:version="1.3.2 (091e20e, 2023-11-25, custom)"
   xmlns:inkscape="http://www.inkscape.org/namespaces/inkscape"
   xmlns:sodipodi="http://sodipodi.sourceforge.net/DTD/sodipodi-0.dtd"
   xmlns="http://www.w3.org/2000/svg"
   xmlns:svg="http://www.w3.org/2000/svg">
  <defs
     id="defs1" />
  <sodipodi:namedview
     id="namedview1"
     pagecolor="#505050"
     bordercolor="#eeeeee"
     borderopacity="1"
     inkscape:showpageshadow="0"
     inkscape:pageopacity="0"
     inkscape:pagecheckerboard="0"
     inkscape:deskcolor="#505050"
     inkscape:zoom="34.083333"
     inkscape:cx="11.98533"
     inkscape:cy="12"
     inkscape:window-width="1707"
     inkscape:window-height="996"
     inkscape:window-x="-8"
     inkscape:window-y="-8"
     inkscape:window-maximized="1"
     inkscape:current-layer="Mastodon" />
  <path
     d="m22,7v-3h-1v-1h-1v-1h-1v-1H5v1h-1v1h-1v1h-1v3h-1v9h1v3h1v1h1v1h1v1h2v1h7v-1h2v-2h-7v-1h-1v-2h1v1h9v-1h2v-1h1v-1h1v-2h1v-6h-1Zm-3,7h-3v-7h-2v1h-1v4h-2v-4h-1v-1h-2v7h-3V6h1v-1h1v-1h3v1h1v1h2v-1h1v-1h3v1h1v1h1v8Z"
     id="path1"
     style="stroke:none;stroke-opacity:1;fill:#ffffff;fill-opacity:1" />
</svg>
