<?xml version="1.0" encoding="UTF-8" standalone="no"?>
<!-- Created with Inkscape (http://www.inkscape.org/) -->

<svg
   width="180"
   height="180"
   viewBox="0 0 180 180"
   version="1.1"
   id="svg1"
   xml:space="preserve"
   inkscape:version="1.3.2 (091e20e, 2023-11-25, custom)"
   sodipodi:docname="newgrounds.svg"
   xmlns:inkscape="http://www.inkscape.org/namespaces/inkscape"
   xmlns:sodipodi="http://sodipodi.sourceforge.net/DTD/sodipodi-0.dtd"
   xmlns="http://www.w3.org/2000/svg"
   xmlns:svg="http://www.w3.org/2000/svg"><sodipodi:namedview
     id="namedview1"
     pagecolor="#505050"
     bordercolor="#eeeeee"
     borderopacity="1"
     inkscape:showpageshadow="0"
     inkscape:pageopacity="0"
     inkscape:pagecheckerboard="0"
     inkscape:deskcolor="#505050"
     inkscape:document-units="px"
     inkscape:zoom="2.3083333"
     inkscape:cx="-24.693141"
     inkscape:cy="120.64982"
     inkscape:window-width="2560"
     inkscape:window-height="1009"
     inkscape:window-x="2552"
     inkscape:window-y="-8"
     inkscape:window-maximized="1"
     inkscape:current-layer="layer1" /><defs
     id="defs1" /><g
     inkscape:label="Layer 1"
     inkscape:groupmode="layer"
     id="layer1"><path
       style="fill:#ffffff;stroke-width:1.08592;fill-opacity:1"
       d="m 10.153198,160.82666 c -4.4656646,-1.08863 -8.7510451,-7.0921 -9.76116865,-13.67462 -0.40630816,-2.64765 -0.48876212,-4.69575 -0.28454384,-7.06725 0.3744798,-4.34857 1.49253309,-7.55679 3.78987469,-10.87484 0.9825847,-1.41915 1.120627,-1.71691 1.055298,-2.2764 -0.1066374,-0.91316 0.2704051,-5.34478 0.5780139,-6.79448 0.3281219,-1.54636 0.4194913,-1.65758 6.1329449,-7.46489 5.005042,-5.08727 8.713352,-8.63383 13.167268,-12.59293 l 2.946374,-2.619037 0.119951,-4.68337 c 0.262239,-10.239039 1.281007,-23.093811 1.905954,-24.049215 0.469313,-0.71748 9.27687,-7.312852 14.556541,-10.900398 2.19899,-1.494228 4.027996,-2.741092 4.064461,-2.770814 0.03648,-0.02976 -0.182022,-0.42894 -0.485515,-0.887144 -1.425098,-2.151502 -1.660189,-3.814318 -1.092165,-7.725164 0.451406,-3.107938 1.056362,-5.351104 2.268391,-8.411185 0.6543,-1.651935 0.948345,-2.183298 1.340004,-2.421473 0.275976,-0.167829 1.779195,-0.649294 3.340488,-1.069904 2.164686,-0.583182 2.816043,-0.823877 2.743199,-1.013706 -0.05256,-0.136924 -0.09762,-0.342359 -0.100121,-0.456532 -0.0022,-0.114174 -0.323332,-0.354564 -0.712907,-0.534208 -1.050899,-0.484582 -1.148491,-0.776597 -1.147047,-3.432173 10e-4,-2.558191 0.09394,-2.821211 1.145972,-3.256981 0.396557,-0.164256 0.523762,-0.357962 0.616673,-0.939039 0.273609,-1.711009 2.042487,-3.814079 3.966315,-4.715655 0.945902,-0.443272 1.194708,-0.479043 3.332278,-0.479043 2.234392,0 2.349705,0.01878 3.521088,0.573595 1.361832,0.645026 2.88691,2.088953 3.393948,3.21337 0.207976,0.461212 0.524109,0.794079 0.944566,0.994584 l 0.631963,0.301354 -0.115705,1.505314 c -0.09306,1.210107 -0.06114,1.588648 0.162736,1.930268 0.23963,0.365727 0.250576,0.631398 0.07852,1.906052 -0.374892,2.777752 -0.456216,2.96249 -1.509104,3.428122 -0.725764,0.320976 -0.972518,0.537204 -1.13065,0.990826 -0.25038,0.718239 -0.250848,0.704926 0.0253,0.704926 0.283534,0 4.344498,2.401068 4.859778,2.873368 0.503628,0.461624 2.190476,3.762552 2.905522,5.68573 0.436346,1.173554 0.663498,1.561694 0.954416,1.630824 0.209986,0.04996 8.897884,1.345434 19.306424,2.878984 l 18.924627,2.788242 1.13342,0.767148 1.1334,0.767138 1.1811,-0.832662 c 0.6496,-0.457976 5.04618,-3.549376 9.77018,-6.869796 l 8.58909,-6.037134 0.62695,-1.285088 c 0.89297,-1.830396 1.92034,-2.886606 5.87864,-6.043639 1.92216,-1.533049 5.41395,-4.347365 7.75953,-6.254025 2.3456,-1.90666 4.7625,-3.815448 5.3709,-4.241769 2.6404,-1.850138 6.02739,-2.52658 9.93171,-1.983543 5.51248,0.766714 10.39245,5.250177 11.73823,10.784464 0.42586,1.751254 0.38189,5.232466 -0.0884,6.995122 -0.67632,2.535148 -2.30404,5.183622 -4.1597,6.768274 -1.12749,0.962842 -2.81717,2.071014 -3.78345,2.481362 -13.07539,5.552824 -18.52775,7.811724 -19.40212,8.0383 -0.59404,0.15393 -1.75365,0.279874 -2.57692,0.279874 h -1.49684 l -7.89541,4.231238 c -4.34247,2.327171 -8.75499,4.690438 -9.80563,5.251708 -1.05062,0.561258 -1.91023,1.039856 -1.91023,1.06354 0,0.02368 0.30913,0.963234 0.68696,2.087868 0.83925,2.498116 1.5472,5.432688 1.7922,7.429044 0.10089,0.821782 0.20402,1.513372 0.22925,1.53685 0.0252,0.02346 1.12538,0.172184 2.44478,0.330456 1.68868,0.202558 2.53042,0.383798 2.84314,0.612145 0.56125,0.409837 0.85484,1.489329 0.8766,3.223089 0.0281,2.239473 -0.2234,2.060416 3.09089,2.200467 7.48224,0.316177 16.39139,1.551075 19.10877,2.648669 4.94154,1.995977 8.88265,6.24638 12.19212,13.148898 1.42872,2.979874 1.77023,3.988234 1.60519,4.739634 -0.14133,0.6435 -0.40156,0.87551 -3.43301,3.06089 l -2.5429,1.83319 -0.0612,4.62011 c -0.1036,7.81698 -0.88145,13.56482 -2.70407,19.98219 -1.9773,6.96202 -5.82893,14.5199 -9.86379,19.35528 -2.64381,3.16833 -6.73983,6.79101 -9.63906,8.52512 l -1.23266,0.7373 -66.469554,-0.0151 c -51.623363,-0.0118 -66.668014,-0.0635 -67.358052,-0.2317 z m 68.371836,-3.33117 c 2.145574,-1.08309 6.70478,-4.45815 6.70478,-4.96338 0,-0.0869 -1.539294,-0.17979 -3.420651,-0.20633 -4.118615,-0.0581 -4.103869,-0.0459 -2.495229,-2.06596 l 1.029236,-1.29247 4.020036,0.12034 4.020024,0.12034 1.409775,-2.10904 c 1.255487,-1.87824 3.966217,-6.87812 3.966217,-7.3156 0,-0.0926 -1.099494,-0.21952 -2.44331,-0.28214 -3.927342,-0.18298 -4.80506,-0.28662 -4.917898,-0.58067 -0.05549,-0.1445 0.178298,-0.86682 0.51943,-1.60515 l 0.620234,-1.34243 3.880788,0.12915 3.880788,0.12915 0.829318,-2.54981 c 0.754974,-2.32122 2.166476,-7.77545 2.037676,-7.87385 -0.02942,-0.0225 -1.600604,-0.12499 -3.49154,-0.22785 -1.90401,-0.10359 -3.521478,-0.27041 -3.625,-0.37393 -0.232376,-0.23238 0.169534,-2.78327 0.478978,-3.04008 0.132754,-0.11018 1.066222,-0.11281 2.596058,-0.007 1.313822,0.0906 2.915718,0.16753 3.559756,0.17099 l 1.170992,0.006 0.287856,-2.08792 c 0.249816,-1.81196 0.420034,-3.54215 0.731986,-7.44011 l 0.07276,-0.90977 -1.27308,-0.10991 c -0.70018,-0.0605 -2.272604,-0.16164 -3.494264,-0.22489 -1.221662,-0.0632 -2.367384,-0.19028 -2.54605,-0.2823 -0.289074,-0.14888 -0.311464,-0.31746 -0.20335,-1.53077 0.06678,-0.74991 0.213002,-1.45868 0.324842,-1.57506 0.157242,-0.16361 0.968988,-0.1547 3.579576,0.0394 1.856924,0.13798 3.4362,0.25318 3.5095,0.25602 0.0733,0.003 0.133274,-1.63412 0.133274,-3.63764 0,-2.79248 -0.0518,-3.6442 -0.222124,-3.64889 -0.122166,-0.003 -5.539674,-0.35332 -12.03891,-0.77766 -6.499236,-0.424324 -11.830684,-0.760847 -11.847657,-0.747822 -0.01694,0.01301 -0.119635,2.501982 -0.228119,5.531022 -0.307892,8.59616 -0.927822,13.48991 -2.520988,19.90071 -3.277048,13.18659 -10.35104,25.27549 -18.423418,31.48417 -0.847941,0.65218 -1.617674,1.25162 -1.71052,1.33211 -0.09284,0.0805 5.366924,0.14635 12.13282,0.14635 h 12.301648 z m 66.057186,-0.22315 c 1.46753,-0.99306 4.61819,-3.61129 4.61819,-3.83775 0,-0.10339 -1.36647,-0.19135 -3.42065,-0.22034 -4.0279,-0.0567 -3.95165,0.003 -2.44333,-1.91132 l 0.97734,-1.24028 4.08648,0.0155 4.08647,0.0155 1.1961,-1.66238 c 0.65785,-0.91433 1.83913,-2.74192 2.62506,-4.0613 l 1.42897,-2.39891 -1.64719,-0.12715 c -0.90596,-0.07 -2.59244,-0.17813 -3.74775,-0.24044 -1.37058,-0.0739 -2.12882,-0.18699 -2.18192,-0.32535 -0.0448,-0.11665 0.20781,-0.83799 0.56127,-1.603 l 0.64264,-1.3909 3.04969,0.11709 c 1.67734,0.0643 3.45514,0.1617 3.95069,0.21621 l 0.90099,0.0991 0.81432,-2.10442 c 0.84571,-2.18555 2.27033,-6.51646 2.27033,-6.9019 0,-0.23686 -0.98579,-0.34539 -5.03505,-0.55439 -1.79139,-0.0925 -2.30282,-0.17517 -2.38354,-0.38551 -0.0565,-0.1473 0.0463,-0.86681 0.22871,-1.59893 l 0.33147,-1.33111 3.20709,0.12026 c 1.76389,0.0661 3.46565,0.16582 3.78169,0.2215 0.48835,0.086 0.59867,0.0379 0.73503,-0.32072 0.40447,-1.06382 1.35906,-9.49499 1.10656,-9.7733 -0.0584,-0.0643 -1.58547,-0.21267 -3.39353,-0.32964 -1.94807,-0.12602 -3.37102,-0.29554 -3.49269,-0.4161 -0.24001,-0.2378 -0.0648,-2.67129 0.212,-2.94433 0.10794,-0.10654 1.35009,-0.0829 3.36955,0.064 1.75918,0.12805 3.2662,0.17128 3.34892,0.0961 0.16389,-0.14899 -0.0341,-4.63947 -0.21767,-4.93646 -0.0634,-0.10266 -4.11427,-0.53819 -9.26292,-0.99602 -5.03261,-0.44752 -9.51004,-0.85888 -9.94984,-0.91416 l -0.79962,-0.10047 -0.0131,3.60889 c -0.0585,16.04377 -5.35564,32.20995 -13.9096,42.4506 -0.78248,0.93677 -2.51796,2.75594 -3.85662,4.04259 l -2.43393,2.33938 h 9.75316 9.75317 z m -113.051605,0.14251 c 1.816897,-0.9054 3.517416,-3.40482 4.220648,-6.20351 0.425084,-1.69174 0.42971,-4.46128 0.0098,-5.85863 -1.146569,-3.81534 -3.488651,-5.39856 -6.361933,-4.30058 -1.808862,0.69121 -3.920814,3.72266 -4.500935,6.46054 -0.333063,1.5719 -0.333128,4.3311 -1.31e-4,5.60956 0.535772,2.057 1.638992,3.7232 2.909704,4.39456 0.982476,0.51908 2.5635,0.47579 3.722852,-0.10193 z m -3.049277,-2.1642 c -0.04637,-0.0752 0.228739,-0.10664 0.611449,-0.0702 0.761252,0.0727 0.930765,-0.18813 0.331011,-0.50911 -0.200657,-0.10739 -0.642919,-0.62996 -0.982791,-1.16128 -0.597028,-0.93329 -0.644874,-0.96602 -1.412132,-0.96602 -0.587472,0 -0.794177,-0.0694 -0.794177,-0.26654 0,-0.19631 0.204815,-0.26655 0.777193,-0.26655 h 0.777184 l -0.117128,-0.57751 c -0.105769,-0.52125 -0.18578,-0.58301 -0.821618,-0.63382 -0.387458,-0.0309 -0.766856,-0.11732 -0.843088,-0.19192 -0.29095,-0.28466 0.206672,-3.24402 0.735516,-4.37411 0.570901,-1.22001 1.593578,-2.45745 2.357328,-2.8524 0.64319,-0.33262 2.16727,-0.3265 2.820527,0.0112 0.674346,0.34871 1.364959,1.2708 1.790412,2.3905 0.412596,1.08587 0.46472,3.71036 0.100777,5.07293 -0.511045,1.91313 -1.710955,3.675 -2.857503,4.19577 -0.721986,0.32792 -2.314065,0.456 -2.472946,0.19893 z m 19.394851,2.05504 c 0.469638,-0.21702 1.430798,-0.97648 2.189672,-1.73017 1.102068,-1.09453 1.503642,-1.65603 2.168095,-3.03147 1.236842,-2.56031 1.618576,-4.22824 1.606425,-7.01899 -0.0086,-1.99793 -0.0734,-2.50401 -0.478761,-3.74555 -0.518582,-1.58828 -1.534124,-3.29437 -2.389265,-4.01392 -1.853211,-1.55938 -4.88672,-1.28614 -7.096504,0.63921 -0.953275,0.83058 -2.535158,3.22276 -3.122076,4.72137 -1.329211,3.39388 -1.387677,7.93907 -0.138444,10.76317 0.831902,1.88065 2.448143,3.43343 3.981062,3.82476 0.840155,0.21448 2.334534,0.0283 3.279796,-0.40841 z m -3.617094,-2.82601 c -0.08144,-0.13178 5.43e-4,-0.15797 0.248285,-0.0793 0.203436,0.0646 0.654191,0.064 1.001686,-0.001 l 0.63181,-0.11853 -0.786858,-0.69262 c -0.432772,-0.38094 -0.960606,-1.05155 -1.172979,-1.49023 l -0.386121,-0.79764 h -1.029605 c -0.880161,0 -1.043092,-0.0515 -1.122538,-0.3554 -0.0846,-0.32337 -0.0054,-0.35539 0.878488,-0.35539 h 0.97141 l -0.05516,-0.66635 -0.05516,-0.66636 -1.039411,-0.0538 -1.039421,-0.0538 0.118289,-1.45661 c 0.153473,-1.88994 0.499002,-3.10068 1.356869,-4.7544 1.494944,-2.88184 3.754267,-4.02516 5.968026,-3.02011 2.710664,1.23068 3.565946,6.92097 1.646288,10.95294 -1.222248,2.56715 -2.817672,3.80555 -4.902683,3.80555 -0.61967,0 -1.163336,-0.0868 -1.231239,-0.19675 z m -30.72258,2.0533 c 2.577096,-0.67107 4.998874,-2.9786 6.704096,-6.38782 2.252753,-4.5039 2.543498,-10.86656 0.711625,-15.57344 -0.643083,-1.65234 -1.947969,-3.65732 -2.924015,-4.49277 l -0.722626,-0.61855 -1.079493,0.73307 c -0.979121,0.66491 -1.047283,0.75087 -0.733061,0.92449 0.897817,0.49606 2.516816,2.38286 3.137518,3.65649 0.952494,1.95444 1.224636,3.15432 1.330025,5.86397 0.191969,4.93592 -1.070143,8.68745 -3.884599,11.54664 -1.574347,1.59938 -3.861112,2.30805 -5.745391,1.78049 -1.1456354,-0.32077 -1.1236672,-0.47732 0.05517,-0.39293 0.55623,0.0399 1.286676,6.8e-4 1.623212,-0.0869 l 0.611884,-0.15935 -0.645774,-0.39911 c -0.912924,-0.56422 -2.3419306,-2.18109 -2.8296937,-3.20171 -0.3972189,-0.83116 -0.4492129,-0.87015 -1.3022255,-0.9767 -0.4886644,-0.061 -1.230294,-0.11165 -1.6480803,-0.11251 -0.651205,-10e-4 -0.7843389,-0.0665 -0.9329037,-0.45734 -0.095344,-0.2507 -0.1733022,-0.49059 -0.1733022,-0.53309 0,-0.0425 0.7064458,-0.0774 1.5698832,-0.0774 h 1.5698836 l -0.2717842,-1.04316 -0.2717734,-1.04316 -1.4007076,-0.096 c -0.7703848,-0.0528 -1.4544932,-0.15024 -1.520224,-0.21654 -0.2300524,-0.23198 -0.069174,-4.43919 0.2200836,-5.75722 0.158729,-0.72314 0.255984,-1.34739 0.2161416,-1.38724 -0.039854,-0.0399 -0.4332932,0.18188 -0.8743183,0.49274 l -0.8018657,0.5652 -0.2180203,1.77979 c -0.4607672,3.7614 0.024542,7.4543 1.3461401,10.24375 2.118371,4.4711 5.2371248,6.37596 8.8842228,5.42626 z m 20.131268,-22.99998 2.542043,-1.24145 -0.543037,-0.66879 c -0.298672,-0.36782 -0.683934,-0.84717 -0.856129,-1.06519 l -0.313093,-0.39643 -1.954657,1.20366 -1.954657,1.20364 0.04724,0.70319 c 0.0631,0.94006 0.197269,1.50282 0.35818,1.50282 0.07264,0 1.276001,-0.55865 2.674124,-1.24145 z m 24.374525,-1.04917 c 4.296348,-1.48363 8.646134,-6.45678 10.741158,-12.28046 1.566832,-4.35541 2.242296,-10.24876 1.690974,-14.75344 -0.415354,-3.39379 -1.601125,-7.146984 -3.04339,-9.63293 l -0.694468,-1.197011 -1.501656,1.095 -1.501654,1.09501 0.366932,0.54625 c 0.201819,0.30043 0.724581,1.283721 1.161686,2.185079 2.847024,5.870812 2.611216,14.818122 -0.559608,21.232622 -1.488938,3.01212 -3.808986,5.78872 -5.823174,6.96911 -1.207631,0.70772 -3.521283,1.23226 -4.918592,1.11512 -1.168299,-0.098 -2.841811,-0.6212 -3.480539,-1.08825 -0.297086,-0.21724 -0.210994,-0.21721 0.626869,1.2e-4 1.175293,0.30487 2.444995,0.32106 3.802222,0.0485 l 1.013056,-0.20345 -0.672446,-0.30368 c -1.648298,-0.74441 -3.650453,-2.9546 -4.869562,-5.3755 l -0.693491,-1.37715 h -2.457634 -2.457635 l -0.205825,-0.68697 c -0.113208,-0.37784 -0.205826,-0.77766 -0.205826,-0.88848 0,-0.13988 0.706522,-0.20151 2.310047,-0.20151 1.270527,0 2.310047,-0.0681 2.310047,-0.15118 0,-0.0832 -0.07526,-0.38302 -0.167297,-0.66637 -0.09198,-0.28335 -0.257613,-0.97496 -0.367997,-1.53692 l -0.200678,-1.02181 h -2.274201 -2.2742 l -0.110145,-0.66636 c -0.0606,-0.3665 -0.111025,-1.33272 -0.1121,-2.14716 -10e-4,-0.81444 -0.06526,-1.45415 -0.142625,-1.42157 -0.07732,0.0326 -0.604477,0.37909 -1.171372,0.77001 l -1.030723,0.71078 0.104357,1.97116 c 0.267049,5.04251 1.699357,9.50505 4.168285,12.98687 1.818179,2.56409 3.821291,4.15454 6.230971,4.94732 1.172143,0.38563 1.59815,0.43525 3.300515,0.38442 1.446544,-0.0432 2.254915,-0.16204 3.109687,-0.45721 z m -25.854787,-6.68314 c 3.029719,-2.03604 5.5342,-3.72084 5.565507,-3.744 0.03128,-0.0231 -0.07134,-0.70953 -0.228185,-1.52525 -0.156806,-0.81571 -0.342347,-2.26221 -0.412313,-3.21445 l -0.127215,-1.73136 -7.99632,5.60849 c -4.39798,3.08466 -8.053558,5.6642 -8.123514,5.7323 -0.06994,0.0681 0.306415,0.45932 0.836366,0.86936 0.529952,0.41004 1.381932,1.30461 1.893282,1.98793 l 0.929743,1.2424 1.077038,-0.76177 c 0.59237,-0.41897 3.555891,-2.42762 6.585611,-4.46365 z M 139.55692,103.54435 c -0.10566,-3.27403 -0.35248,-4.390365 -1.50258,-6.796879 -0.68199,-1.427052 -1.04358,-1.924979 -2.33801,-3.219766 -2.28725,-2.287872 -5.33969,-4.082682 -8.27402,-4.865067 -0.86729,-0.231246 -23.69562,-2.60584 -23.87051,-2.483001 -0.0273,0.01912 0.43202,0.95169 1.02062,2.072328 1.13239,2.155987 2.49402,5.96518 2.49402,6.977117 0,0.545035 -0.2411,0.832391 -2.48775,2.965154 l -2.48775,2.361624 v 1.2055 c 0,1.19412 0.004,1.20558 0.48866,1.21576 0.26877,0.005 8.40503,0.75597 18.08058,1.66737 9.67556,0.9114 17.90133,1.66642 18.27952,1.67783 l 0.68758,0.0207 z m -4.99248,0.65347 c -0.94676,-0.74474 -0.40983,-2.47485 0.76807,-2.47485 0.75589,0 1.05702,0.16292 1.35067,0.73078 0.33148,0.64102 0.1788,1.29688 -0.40967,1.75978 -0.57479,0.45212 -1.12068,0.4471 -1.70907,-0.0157 z m -8.98471,-1.1661 c -0.41541,-0.52809 -0.46289,-0.97471 -0.16399,-1.54255 0.28138,-0.53458 0.49635,-0.64925 1.21727,-0.64925 0.72092,0 0.93589,0.11467 1.21727,0.64925 0.29889,0.56784 0.25141,1.01446 -0.164,1.54255 -0.28407,0.36115 -0.52491,0.46821 -1.05327,0.46821 -0.52836,0 -0.76922,-0.10707 -1.05328,-0.46821 z m -9.70541,-0.85643 c -0.88141,-0.88141 -0.25685,-2.406982 0.9854,-2.406982 0.73052,0 1.42157,0.691042 1.42157,1.421572 0,0.34621 -0.16123,0.71046 -0.43616,0.98541 -0.27494,0.27493 -0.63919,0.43616 -0.98541,0.43616 -0.34623,0 -0.71047,-0.16123 -0.9854,-0.43616 z m -9.84116,-1.09823 c -0.78835,-1.00221 -0.21551,-2.197231 1.05328,-2.197231 1.26877,0 1.84161,1.195021 1.05327,2.197231 -0.28407,0.36115 -0.52492,0.46821 -1.05327,0.46821 -0.52836,0 -0.7692,-0.10707 -1.05328,-0.46821 z m 63.78001,-0.44602 c 0,-0.32897 -1.85961,-3.700124 -2.98575,-5.412643 -2.86943,-4.363523 -6.11488,-6.901907 -10.07492,-7.879952 -3.21664,-0.794449 -9.864,-1.653413 -15.10417,-1.951737 -4.031,-0.229487 -6.13051,-0.320488 -6.13051,-0.265692 0,0.02346 0.5243,0.288062 1.16513,0.58795 5.0292,2.35344 8.41864,6.378265 9.59518,11.393895 0.17194,0.732997 0.3383,1.364281 0.36968,1.402857 0.0314,0.03852 5.19643,0.568511 11.47793,1.17765 6.28148,0.609152 11.48085,1.117332 11.55415,1.129332 0.0733,0.012 0.13328,-0.0698 0.13328,-0.18166 z M 40.894629,91.594766 C 49.479312,86.949728 58.71092,82.861063 64.243112,81.253759 l 2.004718,-0.582445 1.336139,0.706186 c 2.91851,1.542496 5.405095,4.908003 6.892155,9.328298 0.356084,1.058469 0.439309,1.166204 0.995452,1.288739 0.808632,0.178156 28.248874,2.491873 28.350294,2.390448 0.0435,-0.04354 -0.1602,-0.734929 -0.45273,-1.536469 C 101.75061,88.413637 98.536232,84.122154 95.150178,81.875481 92.161832,79.892698 87.320646,78.905802 77.411184,78.259332 74.332598,78.058491 70.899676,77.826038 69.78247,77.74276 l -2.03128,-0.15141 -2.233424,0.712744 c -5.26827,1.681244 -12.650664,5.051736 -18.226074,8.321259 -2.614778,1.533364 -7.661357,4.802539 -10.217527,6.618937 -2.555259,1.815747 -2.696809,1.876863 3.820464,-1.649524 z m 86.568711,-7.063904 c 0.38956,-0.464232 0.84849,-1.060033 1.01987,-1.323998 0.17137,-0.263966 0.66723,-0.652096 1.10189,-0.862515 0.6961,-0.336972 1.028,-0.375088 2.784,-0.319695 l 1.99369,0.06288 -0.0621,-1.155029 c -0.0341,-0.635264 -0.0825,-1.176693 -0.1074,-1.203178 -0.0423,-0.04485 -58.264112,-7.148542 -58.589138,-7.148542 -0.08122,0 -0.147772,0.553994 -0.147772,1.231087 v 1.231087 l 0.932903,0.09664 c 0.513098,0.05321 2.132358,0.181675 3.598351,0.285575 6.7748,0.480184 12.08303,1.558731 15.102358,3.068552 1.441506,0.720834 3.87842,2.378525 5.051738,3.436396 l 0.9629,0.868172 12.00891,1.266043 c 6.6049,0.696314 12.37621,1.276055 12.82515,1.288293 0.76638,0.02085 0.85949,-0.02932 1.52451,-0.821792 z m 0.76788,-8.61826 c -0.004,-1.649274 -0.88427,-5.55784 -1.89937,-8.436562 l -0.45286,-1.284286 -1.62208,0.840046 -1.62207,0.840048 0.0575,2.221207 c 0.0523,2.016131 -0.1907,4.170968 -0.58197,5.163131 -0.0927,0.235004 0.32512,0.331498 2.78431,0.643082 1.59135,0.201622 2.9933,0.377064 3.11547,0.389867 0.12217,0.01282 0.22164,-0.156633 0.22107,-0.376533 z m -8.62142,-1.929388 c 0.3204,-1.269712 0.51104,-3.703456 0.32793,-4.186648 -0.13989,-0.36917 -0.30617,-0.300898 -3.96521,1.627936 -3.6132,1.904684 -4.33767,2.387712 -4.03507,2.690316 0.1914,0.191404 7.11907,1.094662 7.28701,0.950115 0.0789,-0.06798 0.25236,-0.554721 0.38534,-1.081719 z m -18.28197,-2.024352 c 1.24207,-3.984232 2.4598,-7.618983 2.78437,-8.310976 0.3412,-0.727392 0.65868,-1.021124 2.23669,-2.06932 l 1.83904,-1.221595 -0.68402,-0.109885 C 105.75272,59.965768 90.973488,58.00972 90.599116,58.00972 c -0.49152,0 -0.517266,-0.08872 0.438224,1.51044 1.897636,3.175994 2.120586,6.630698 0.676106,10.476368 -0.329947,0.878401 -0.583781,1.613211 -0.564082,1.63291 0.08688,0.08688 8.971246,1.091568 9.437476,1.067276 0.44199,-0.02302 0.55243,-0.132994 0.74099,-0.737852 z m -14.7336,-3.77604 c -0.128866,-3.220265 -0.608572,-6.540208 -1.360442,-9.415432 -0.288432,-1.102982 -0.481312,-2.117752 -0.428624,-2.255056 0.1413,-0.368236 1.349104,-1.15757 2.080104,-1.35941 0.511588,-0.141258 2.956592,0.142668 12.45752,1.44662 l 11.820992,1.622366 2.5814,-1.832318 c 2.23831,-1.58879 2.54762,-1.86608 2.32732,-2.086402 -0.30398,-0.30396 -42.738363,-6.47084 -43.485108,-6.31957 -0.683446,0.138454 -1.10095,0.672467 -0.990978,1.267552 0.05038,0.27262 0.545002,1.77509 1.09918,3.338816 1.74805,4.932448 2.933822,10.103972 3.329357,14.52027 0.111285,1.242588 0.258351,2.349858 0.326797,2.460622 0.118257,0.191328 8.175225,1.352329 9.660688,1.392084 l 0.693784,0.01857 z m -6.33991,0.488665 c -0.500708,-0.500718 -0.482682,-1.644529 0.03356,-2.125429 0.839396,-0.782016 2.001928,-0.186149 2.001928,1.026086 0,1.287392 -1.199518,1.935252 -2.035428,1.099343 z m -1.12748,-8.143592 c -0.370744,-0.409663 -0.379876,-1.428127 -0.01748,-1.945547 0.20173,-0.288008 0.455956,-0.394938 0.939016,-0.394938 0.5427,0 0.71748,0.09328 0.967252,0.516084 0.378748,0.64117 0.38839,1.24024 0.02824,1.754436 -0.355942,0.508178 -1.483238,0.549323 -1.91704,0.06994 z m -1.990275,-7.396739 c -0.274945,-0.274944 -0.436161,-0.639194 -0.436161,-0.985408 0,-0.675866 0.691222,-1.421568 1.317722,-1.421568 1.062639,0 1.602754,1.715352 0.781125,2.480818 -0.519863,0.484322 -1.131693,0.45714 -1.662686,-0.07384 z m 46.594875,5.077907 16.73386,-10.170289 -0.53485,-1.142932 c -0.40256,-0.860234 -0.58277,-1.593958 -0.7286,-2.966432 -0.10653,-1.002924 -0.21304,-1.85043 -0.23661,-1.883356 -0.0641,-0.0897 -31.35334,21.6119 -31.94564,22.156956 -1.02149,0.940016 -1.48894,2.914176 -0.99664,4.209028 0.16767,0.440994 0.20842,0.456587 0.57751,0.220898 0.21841,-0.139475 7.92735,-4.830218 17.13097,-10.423873 z M 63.995131,46.769592 c 2.973153,-1.42451 4.678581,-1.903444 7.258132,-2.038284 l 1.927249,-0.100777 -0.11312,-0.551539 C 72.813254,42.83983 72.603866,40.807888 72.644328,39.97353 l 0.0431,-0.888478 -1.050617,-0.41884 c -1.181222,-0.470898 -1.182633,-0.470258 -1.90742,0.851818 -0.208247,0.379866 -0.630149,0.70851 -1.307927,1.018812 -0.928169,0.42492 -1.137252,0.451775 -2.891123,0.37134 -1.363808,-0.06254 -2.177944,-0.197018 -2.921887,-0.482594 -1.33824,-0.513716 -3.500689,-1.965256 -4.246032,-2.85014 L 57.77578,36.87896 56.398636,37.076272 c -0.763749,0.109428 -1.377143,0.284392 -1.377143,0.392822 0,0.107506 0.157611,0.746646 0.350243,1.420254 0.517332,1.809002 0.9177,5.110756 0.857595,7.072384 l -0.05278,1.723488 -0.974082,-0.60133 c -0.535739,-0.330738 -1.00389,-0.57152 -1.040334,-0.535086 -0.03648,0.03648 0.463536,0.93311 1.111049,1.99261 l 1.17729,1.926348 2.52848,-1.253132 c 1.390663,-0.689222 3.647967,-1.78951 5.016227,-2.44507 z m 83.383889,-6.313402 6.08611,-4.166352 V 35.5294 c 0,-0.78675 0.60904,-3.024072 0.86654,-3.183214 0.0804,-0.04962 0.16235,0.466055 0.18222,1.146058 0.14139,4.842567 3.78777,9.305256 8.62858,10.560288 1.28768,0.333856 4.04479,0.349612 5.51566,0.0315 3.6437,-0.787934 6.73512,-3.614249 8.02809,-7.33963 0.41553,-1.197282 0.48315,-1.675534 0.48554,-3.434486 0.004,-2.905023 -0.60326,-4.728599 -2.31725,-6.958788 -3.28653,-4.276356 -8.66153,-5.7052 -13.95939,-3.71084 -1.50238,0.565558 -7.58529,5.27904 -14.80438,11.471504 -3.79014,3.251138 -4.48356,4.101274 -5.13359,6.293802 -0.44369,1.496508 -0.34641,4.61145 0.1353,4.332857 0.11027,-0.06374 2.93923,-1.990807 6.28657,-4.282297 z m 16.56041,1.048186 c -1.61957,-0.518278 -2.78798,-1.261786 -3.99702,-2.543444 -1.99357,-2.113278 -2.66285,-3.962732 -2.54007,-7.01922 0.0653,-1.624081 0.12993,-1.899448 0.73307,-3.119806 1.5461,-3.128343 4.21782,-4.967002 7.59074,-5.223932 2.31941,-0.176668 4.69448,0.545936 6.21937,1.892228 l 0.62193,0.549086 -0.60322,-0.291842 c -0.33177,-0.16051 -0.93462,-0.303786 -1.33966,-0.318402 -0.7276,-0.02628 -0.79729,0.02976 -5.79385,4.660098 -4.46664,4.139216 -5.05436,4.746018 -5.0315,5.194807 0.0297,0.580685 0.85742,2.088095 1.22398,2.228755 0.13462,0.05168 3.25218,-1.642228 6.92791,-3.764204 3.67573,-2.121976 6.81443,-3.868364 6.97491,-3.880874 0.40987,-0.03192 0.79078,0.846453 0.81741,1.885028 l 0.0226,0.879639 -6.61979,3.128061 c -3.64088,1.720424 -6.55717,3.190674 -6.48063,3.26721 0.0765,0.07656 0.44366,0.287269 0.81586,0.468302 l 0.6767,0.329154 5.27084,-1.566322 c 2.89896,-0.861471 5.32719,-1.547718 5.39607,-1.52499 0.25837,0.08524 -0.49642,1.287446 -1.36108,2.167834 -2.07212,2.109792 -3.97652,2.933626 -6.76048,2.924526 -1.2001,-0.0044 -2.09739,-0.108374 -2.76405,-0.321692 z M 67.926186,33.857983 c 0.656406,-0.298075 0.771829,-0.448996 1.110604,-1.452169 0.497873,-1.474268 0.480834,-1.651013 -0.188016,-1.951346 -0.387132,-0.173834 -0.630519,-0.450798 -0.769929,-0.876132 -0.164821,-0.502879 -0.304938,-0.632092 -0.731965,-0.67503 -0.42048,-0.04224 -0.580468,0.04484 -0.784915,0.427299 -0.286313,0.535609 -1.132094,0.958521 -1.916987,0.958521 -0.958325,0 -1.59348,0.207313 -1.682906,0.549302 -0.048,0.183412 0.04692,0.794546 0.210876,1.358074 0.280688,0.964808 0.35414,1.053126 1.258354,1.513274 1.155104,0.58781 2.40968,0.641008 3.494884,0.148207 z m 2.847469,-5.434665 c 0.249599,-0.832326 0.300637,-2.561948 0.08556,-2.901124 -0.318033,-0.501642 -3.014918,-0.945164 -6.34775,-1.043928 -4.066535,-0.120516 -3.981453,-0.156916 -3.981453,1.703581 0,0.763848 0.08438,1.630879 0.187528,1.926749 0.219638,0.630074 0.691721,0.753901 2.885802,0.757007 1.472411,0.0022 1.526533,-0.02465 2.49562,-1.231499 0.271035,-0.337538 0.438104,-0.38875 0.977329,-0.299584 0.357724,0.05918 0.832836,0.108483 1.055808,0.109515 0.224623,0.001 0.454219,0.140615 0.514889,0.312919 0.507799,1.442016 0.550073,1.490568 1.247332,1.432568 0.606922,-0.0505 0.685097,-0.118604 0.879292,-0.766204 z"
       id="path1" /></g></svg>
