<?xml version="1.0" encoding="UTF-8" standalone="no"?>
<!-- Created with Inkscape (http://www.inkscape.org/) -->

<svg
   width="48"
   height="48"
   viewBox="0 0 48 48"
   version="1.1"
   id="svg1"
   xml:space="preserve"
   inkscape:version="1.3.2 (091e20e, 2023-11-25, custom)"
   sodipodi:docname="reddit.svg"
   xmlns:inkscape="http://www.inkscape.org/namespaces/inkscape"
   xmlns:sodipodi="http://sodipodi.sourceforge.net/DTD/sodipodi-0.dtd"
   xmlns="http://www.w3.org/2000/svg"
   xmlns:svg="http://www.w3.org/2000/svg"><sodipodi:namedview
     id="namedview1"
     pagecolor="#505050"
     bordercolor="#eeeeee"
     borderopacity="1"
     inkscape:showpageshadow="0"
     inkscape:pageopacity="0"
     inkscape:pagecheckerboard="0"
     inkscape:deskcolor="#505050"
     inkscape:document-units="px"
     inkscape:zoom="4.328125"
     inkscape:cx="-16.866426"
     inkscape:cy="7.9711191"
     inkscape:window-width="2560"
     inkscape:window-height="1009"
     inkscape:window-x="2552"
     inkscape:window-y="-8"
     inkscape:window-maximized="1"
     inkscape:current-layer="layer1" /><defs
     id="defs1" /><g
     inkscape:label="Layer 1"
     inkscape:groupmode="layer"
     id="layer1"><path
       style="fill:#ffffff;fill-opacity:1;stroke:none;stroke-width:0.0937947"
       d="m 24.938573,15.913108 2.813841,-12.8498803 8.910501,1.9696885 c 0.0485,1.1293311 0.455535,2.2979614 1.31682,3.0669997 2.398059,2.1412271 6.321026,0.5873564 6.639738,-2.5980254 C 44.783953,3.8580119 43.982346,2.1672248 42.478189,1.410313 40.66466,0.4977177 37.806173,1.1392139 37.131889,3.2508184 34.5306,2.5775115 31.880655,2.0313141 29.253132,1.4687174 28.519773,1.3116907 27.102653,0.6844188 26.451808,1.2280069 c -0.680637,0.5684733 -0.727604,2.2257542 -0.910663,3.054553 -0.600249,2.7176479 -1.170836,5.4418322 -1.767914,8.1601411 -0.178598,0.813104 -0.375514,1.622897 -0.541635,2.438664 -0.063,0.309353 -0.08658,0.748788 -0.382634,0.935343 -0.72315,0.455688 -2.481307,0.282786 -3.350485,0.417588 -2.228099,0.345554 -4.401589,1.004337 -6.471835,1.89037 -0.871144,0.372834 -1.719941,0.813463 -2.532458,1.300966 -0.331046,0.198625 -0.8187023,0.661816 -1.2193319,0.666479 -0.5161387,0.006 -1.2758866,-0.826886 -1.7820995,-1.043539 -1.6319291,-0.698434 -3.6801052,-0.576834 -5.1587108,0.431415 -2.36219897,1.61076 -3.06363424,5.096147 -1.49123568,7.500899 0.45198788,0.691249 1.87064308,1.360364 2.07527978,2.067537 0.1327673,0.458787 -0.1126905,1.110212 -0.114991,1.590458 -0.00627,1.313653 0.026801,2.566194 0.3642502,3.845584 1.3508157,5.121378 6.025596,8.836119 10.7972519,10.652796 7.043523,2.681628 15.353513,2.51604 22.135559,-0.874982 3.08424,-1.542121 5.97569,-3.801583 7.661928,-6.870177 0.930695,-1.693666 1.535131,-3.594587 1.620058,-5.533889 0.03975,-0.907704 -0.342796,-1.929837 -0.221024,-2.805087 0.08442,-0.606818 1.486054,-1.335255 1.871769,-1.884651 1.350286,-1.923278 1.281268,-4.711542 -0.173478,-6.565561 -1.38912,-1.77038 -3.856187,-2.447218 -5.975722,-1.701038 -0.584188,0.205661 -1.609525,1.204466 -2.157279,1.149416 -0.42551,-0.04276 -0.949929,-0.526124 -1.313135,-0.742758 -0.862183,-0.514247 -1.79033,-0.989468 -2.720047,-1.369141 -3.065009,-1.251671 -6.436125,-2.026285 -9.754653,-2.026285 m -9.754654,9.422173 c 5.080685,-0.117613 5.276736,7.997605 0.187591,8.116067 -5.297332,0.123308 -5.485721,-7.993421 -0.187591,-8.116067 m 16.883054,0.07933 c 0.660096,-0.09728 1.432942,-0.07447 2.063485,0.146699 3.893333,1.365622 3.350571,7.272333 -0.750358,7.863267 -5.009212,0.721818 -6.296625,-7.275521 -1.313127,-8.009969 m -16.320285,11.93198 c 0.572111,-0.03095 0.981707,0.492056 1.406923,0.791827 0.652924,0.460307 1.399175,0.775874 2.157277,1.017556 2.904994,0.926118 6.276426,0.913337 9.191886,0.04443 1.258577,-0.375096 2.077451,-1.09322 3.189021,-1.706398 0.355526,-0.19612 0.776514,-0.200023 1.105488,0.05783 1.319103,1.033907 -0.888683,2.357827 -1.668257,2.768466 -2.555755,1.346235 -5.602515,1.600784 -8.441526,1.476467 -2.183362,-0.09561 -4.633773,-0.654279 -6.471838,-1.872562 -0.442483,-0.293283 -1.01767,-0.644178 -1.270281,-1.128869 -0.321058,-0.616015 0.09041,-1.41029 0.801307,-1.448753 z"
       id="path1" /></g></svg>
