<?xml version="1.0" encoding="UTF-8" standalone="no"?>
<!-- Created with Inkscape (http://www.inkscape.org/) -->

<svg
   width="48"
   height="48"
   viewBox="0 0 48 48"
   version="1.1"
   id="svg1"
   xml:space="preserve"
   inkscape:version="1.3.2 (091e20e, 2023-11-25, custom)"
   sodipodi:docname="tapas.svg"
   xmlns:inkscape="http://www.inkscape.org/namespaces/inkscape"
   xmlns:sodipodi="http://sodipodi.sourceforge.net/DTD/sodipodi-0.dtd"
   xmlns="http://www.w3.org/2000/svg"
   xmlns:svg="http://www.w3.org/2000/svg"><sodipodi:namedview
     id="namedview1"
     pagecolor="#505050"
     bordercolor="#eeeeee"
     borderopacity="1"
     inkscape:showpageshadow="0"
     inkscape:pageopacity="0"
     inkscape:pagecheckerboard="0"
     inkscape:deskcolor="#505050"
     inkscape:document-units="px"
     inkscape:zoom="8.65625"
     inkscape:cx="2.0216606"
     inkscape:cy="19.523466"
     inkscape:window-width="1707"
     inkscape:window-height="996"
     inkscape:window-x="-8"
     inkscape:window-y="-8"
     inkscape:window-maximized="1"
     inkscape:current-layer="layer1" /><defs
     id="defs1" /><g
     inkscape:label="Layer 1"
     inkscape:groupmode="layer"
     id="layer1"><path
       style="fill:#ffffff;stroke-width:0.0710925;fill-opacity:1"
       d="M 4.7047618,38.77273 C 4.1629508,38.436881 3.8100635,38.021121 3.4803327,37.330142 2.9945496,36.312142 2.8628205,35.280968 3.1526791,34.765235 3.3372263,34.43688 3.7362514,34.102851 4.0296574,34.03111 4.1469574,34.00243 4.4828684,33.89326 4.7761248,33.788519 5.1508309,33.654683 5.2604633,33.59111 5.1449584,33.57464 4.9451018,33.546141 4.7611615,33.258198 4.5997068,32.721099 4.5330794,32.499466 4.4368588,32.222154 4.3858785,32.104853 4.3349024,31.98755 4.2710531,31.747613 4.2439944,31.571659 4.21694,31.395706 4.1489833,31.089335 4.0929896,30.890835 3.7794744,29.779365 3.6039924,27.266974 3.7796839,26.405113 c 0.038466,-0.18871 0.1181804,-0.583046 0.1771403,-0.876303 0.2058231,-1.023726 0.519334,-2.028715 0.81901,-2.625395 0.030858,-0.06141 0.1753452,-0.351597 0.3211101,-0.644853 0.2079687,-0.4184 0.8762945,-1.494226 1.2586767,-2.026134 0.6609103,-0.919351 2.1318639,-2.40661 3.0048289,-3.038128 0.039705,-0.02872 0.1681991,-0.125934 0.2855034,-0.215991 0.5147697,-0.39523 1.8800057,-1.222827 2.5237777,-1.529897 0.09775,-0.04663 0.225718,-0.114457 0.28437,-0.150731 0.323641,-0.20016 1.179642,-0.556368 2.239407,-0.931895 0.608447,-0.215598 1.438091,-0.423776 2.00075,-0.502037 0.296898,-0.04129 0.618624,-0.105042 0.714943,-0.141662 0.315964,-0.120129 1.879373,-0.228116 3.291614,-0.227351 2.106113,0.0013 2.818068,0.09692 5.083101,0.683849 0.379442,0.09832 1.145279,0.393007 1.494234,0.574964 0.116591,0.06079 0.237088,0.110727 0.267767,0.110971 0.09017,8.54e-4 1.176684,0.631569 1.792615,1.040847 1.014293,0.673981 1.545894,1.107754 2.162171,1.764275 0.218435,0.232702 0.470764,0.499712 0.560727,0.593359 0.319097,0.332151 1.056713,1.264614 1.332955,1.68506 0.407915,0.620859 1.494781,2.688451 1.700373,3.234702 0.05151,0.13685 0.194805,0.503337 0.318435,0.814407 0.123634,0.311071 0.257667,0.718909 0.297859,0.906311 0.06906,0.322033 0.08348,0.338176 0.262711,0.294299 0.104298,-0.02551 0.20036,-0.07365 0.213465,-0.106918 0.01312,-0.03325 0.221457,-0.308245 0.463002,-0.611059 0.241546,-0.302813 0.52236,-0.662543 0.62403,-0.799396 0.653782,-0.879996 2.726485,-2.882217 3.573455,-3.451933 0.113022,-0.07603 0.292765,-0.202211 0.399432,-0.280413 1.141569,-0.83696 2.225669,-1.384452 3.260982,-1.646854 0.219795,-0.05571 0.527596,-0.134713 0.683999,-0.175564 0.436354,-0.11397 1.085554,-0.03714 1.511898,0.178885 0.594395,0.301206 0.946,1.021743 0.712524,1.460179 -0.05041,0.09466 -0.251607,0.270612 -0.447112,0.391007 l -0.355461,0.218901 -1.564032,0.01077 c -1.556652,0.01073 -1.566717,0.0118 -2.13277,0.226159 -1.27223,0.481778 -2.205655,1.054644 -3.211909,1.971225 -1.158827,1.055555 -1.56205,1.486186 -2.747239,2.933975 -0.88041,1.075484 -0.830135,0.968621 -0.709395,1.507774 0.131939,0.589149 0.156852,3.741061 0.03453,4.369402 -0.309019,1.587448 -0.563425,2.43798 -0.970891,3.245916 -0.374005,0.741586 -0.845218,1.369642 -1.215065,1.619494 -0.251896,0.17017 -0.267612,0.171715 -0.866331,0.08515 -0.335381,-0.04849 -0.660543,-0.115168 -0.72258,-0.148173 -0.06204,-0.033 -0.479283,-0.09861 -0.927207,-0.145787 -0.447928,-0.04718 -0.889001,-0.11414 -0.980165,-0.148801 -0.09117,-0.03466 -0.540461,-0.0963 -0.998442,-0.136984 -0.45798,-0.04068 -1.072625,-0.122184 -1.365881,-0.181117 -0.293256,-0.05893 -1.125037,-0.137361 -1.848404,-0.174281 -0.723362,-0.03692 -1.68311,-0.107716 -2.13277,-0.157325 -1.126964,-0.124332 -8.20187,-0.125223 -9.242005,-0.0011 -0.41056,0.04897 -1.329932,0.121594 -2.043045,0.161392 -0.713122,0.03979 -1.378695,0.103578 -1.479057,0.141735 -0.100358,0.03816 -0.588616,0.118351 -1.085016,0.178209 -0.4963956,0.05986 -0.9918251,0.138755 -1.100949,0.175328 -0.1091238,0.03657 -0.5410118,0.101928 -0.9597486,0.145233 -0.5039306,0.05212 -0.8694817,0.131142 -1.0812073,0.233735 -0.2850332,0.138119 -0.3252345,0.18767 -0.369167,0.455042 -0.1191378,0.725074 -0.5496752,1.646103 -0.9370323,2.004563 -0.2925683,0.270739 -0.8408459,0.282391 -1.253441,0.02664 z M 24.14879,33.899503 c 1.361902,-0.483018 2.556853,-1.530021 3.060177,-2.681288 0.20325,-0.464903 0.194001,-1.559393 -0.01654,-1.957056 -0.339322,-0.640907 -0.884014,-0.871626 -1.592878,-0.674715 -0.23955,0.06654 -0.398658,0.199194 -1.512801,1.261227 l -0.391545,0.373234 -0.484129,-0.0011 c -0.266271,-5.56e-4 -0.692073,-0.05066 -0.94623,-0.111286 -0.793118,-0.189204 -2.633931,-0.456402 -3.144277,-0.456402 -1.331536,0 -2.296439,0.607882 -2.384864,1.502445 -0.02701,0.273157 0.0063,0.400657 0.194852,0.746471 0.125074,0.229376 0.312742,0.508012 0.417032,0.61919 0.275613,0.293817 1.329817,0.970502 1.513219,0.971319 0.05403,2.77e-4 0.194219,0.05086 0.311523,0.112476 0.190561,0.100107 0.901563,0.279192 1.812853,0.456617 0.175952,0.03426 0.847778,0.05172 1.492939,0.0388 1.031658,-0.02065 1.232998,-0.04475 1.670669,-0.199983 z m -9.796587,-5.503736 c 0.185261,-0.242932 0.19884,-0.306022 0.195053,-0.906427 -0.0081,-1.281369 -0.611725,-2.387084 -1.303191,-2.387084 -0.495207,0 -0.717729,0.39882 -0.718477,1.287732 -8.54e-4,0.956354 0.228142,1.651743 0.672181,2.041613 0.213666,0.187602 0.314994,0.225272 0.605943,0.225272 0.31887,0 0.366752,-0.02279 0.548491,-0.261106 z m 13.764776,-2.50903 c 0.648272,-0.770423 -0.136225,-2.988344 -1.056999,-2.988344 -0.648371,0 -0.858947,0.90996 -0.485057,2.096082 0.0944,0.299458 0.226044,0.514491 0.465482,0.76031 0.288478,0.296172 0.372278,0.342763 0.616525,0.342763 0.22606,0 0.318186,-0.04223 0.460049,-0.210811 z M 0.59589387,22.528713 c -0.04692,-0.04692 -0.0853091,-0.129203 -0.0853091,-0.182846 0,-0.21762 0.41556983,-0.780732 1.07738623,-1.459889 C 2.2874458,20.168173 2.3808156,19.996473 2.1916013,19.775926 2.0370961,19.595837 1.3670863,18.232105 1.3614703,18.086288 1.3601881,18.054533 1.2805591,17.868609 1.1843855,17.673104 1.0882162,17.477598 1.008194,17.269655 1.0065571,17.211003 1.0048475,17.152355 0.94169487,16.92841 0.86604502,16.713359 0.64530988,16.085842 0.66741503,14.836957 0.91284108,14.069555 1.1274302,13.398588 1.6760283,12.370088 2.1001932,11.843531 2.6727471,11.132764 3.8833412,10.123364 4.5160005,9.8292104 4.6981713,9.7445124 4.985286,9.6112319 5.1540321,9.5330305 5.3227826,9.4548291 5.5067314,9.3906464 5.5628148,9.3904071 5.618894,9.3901292 5.7604661,9.3400764 5.8774199,9.2790949 c 0.5747978,-0.2997102 3.094177,-0.319362 3.8150004,-0.029747 1.2133257,0.48748 1.5489587,0.7009792 2.3814957,1.5148942 0.593108,0.579842 0.668565,0.631634 0.853108,0.585569 0.111351,-0.02778 0.252354,-0.09549 0.313344,-0.15042 0.06099,-0.05493 0.474137,-0.340364 0.918107,-0.634291 0.83779,-0.554651 1.052644,-0.6227568 1.33678,-0.423742 0.367449,0.257372 0.133751,0.683926 -0.854685,1.560002 -0.264693,0.234604 -0.534643,0.474543 -0.599886,0.533191 -0.06524,0.05865 -0.349084,0.29859 -0.630757,0.533194 -0.829439,0.690837 -2.281489,1.911475 -3.154915,2.652117 -0.4470313,0.37907 -1.1188532,0.93528 -1.4929395,1.236016 -0.8591472,0.690696 -1.3059087,1.058465 -2.075024,1.708131 -0.9155726,0.773381 -1.9624596,1.63181 -3.0798933,2.525461 -0.549641,0.439569 -1.048477,0.845838 -1.1085267,0.902824 -0.1392,0.132096 -0.5097218,0.381249 -0.9343183,0.628261 -0.3546098,0.206302 -0.8184715,0.258115 -0.96841633,0.108171 z"
       id="path1" /></g></svg>
