<?xml version="1.0" encoding="UTF-8" standalone="no"?>
<!-- Created with Inkscape (http://www.inkscape.org/) -->

<svg
   width="48"
   height="48"
   viewBox="0 0 48 48"
   version="1.1"
   id="svg1"
   xml:space="preserve"
   inkscape:version="1.3.2 (091e20e, 2023-11-25, custom)"
   sodipodi:docname="wattpad.svg"
   xmlns:inkscape="http://www.inkscape.org/namespaces/inkscape"
   xmlns:sodipodi="http://sodipodi.sourceforge.net/DTD/sodipodi-0.dtd"
   xmlns="http://www.w3.org/2000/svg"
   xmlns:svg="http://www.w3.org/2000/svg"><sodipodi:namedview
     id="namedview1"
     pagecolor="#505050"
     bordercolor="#eeeeee"
     borderopacity="1"
     inkscape:showpageshadow="0"
     inkscape:pageopacity="0"
     inkscape:pagecheckerboard="0"
     inkscape:deskcolor="#505050"
     inkscape:document-units="px"
     inkscape:zoom="8.5208333"
     inkscape:cx="-4.2249389"
     inkscape:cy="31.511002"
     inkscape:window-width="2560"
     inkscape:window-height="1009"
     inkscape:window-x="2552"
     inkscape:window-y="-8"
     inkscape:window-maximized="1"
     inkscape:current-layer="layer1" /><defs
     id="defs1" /><g
     inkscape:label="Layer 1"
     inkscape:groupmode="layer"
     id="layer1"><path
       style="fill:#ffffff;fill-opacity:1;stroke-width:0.22606"
       d="m 8.7877897,40.468825 c 0,-0.529199 -0.05516,-0.948399 -0.136229,-1.035392 -0.08107,-0.08699 -0.471756,-0.146173 -0.964953,-0.146173 H 6.8578815 v -1.924611 c 0,-1.334507 -0.041765,-1.969429 -0.1362287,-2.070785 -0.081071,-0.08699 -0.4717531,-0.146172 -0.9649523,-0.146172 H 4.9279741 v -3.995397 c 0,-2.945115 -0.035808,-4.033821 -0.1362287,-4.141568 -0.081072,-0.08699 -0.4717539,-0.146173 -0.964953,-0.146173 H 2.998068 V 22.964606 19.06666 h 0.8375277 c 0.5584541,0 0.8792892,-0.05399 0.9628534,-0.162031 0.081712,-0.105641 0.1359322,-1.176021 0.1558069,-3.075725 l 0.030478,-2.913693 0.7899355,-0.03659 c 0.4344634,-0.02014 0.8559227,-0.09536 0.9365736,-0.16718 0.095584,-0.08512 0.146636,-0.44345 0.146636,-1.029249 v -0.898664 h 0.8375308 c 0.545946,0 0.879898,-0.05478 0.959228,-0.157343 0.06693,-0.08654 0.137047,-0.53876 0.155804,-1.0049401 l 0.03411,-0.8475981 1.6744793,-0.033709 1.674477,-0.033709 v 0.892478 c 0,0.5317322 0.05507,0.9515572 0.136229,1.0386482 0.08107,0.08699 0.471756,0.146173 0.964955,0.146173 h 0.828724 v 3.995395 c 0,2.945114 0.03582,4.03382 0.136229,4.141567 0.191924,0.205936 1.9539,0.196628 2.114626,-0.01118 0.06693,-0.08654 0.137045,-0.53876 0.155805,-1.004938 l 0.03411,-0.847599 0.794667,-0.03452 c 0.98416,-0.04274 1.078479,-0.153621 1.078479,-1.267778 v -0.829387 h 0.828724 c 0.493199,0 0.883881,-0.05918 0.964955,-0.146173 0.09446,-0.101353 0.136228,-0.736278 0.136228,-2.070784 v -1.924604 h 0.828724 c 0.4932,0 0.883881,-0.05918 0.964956,-0.146173 0.08107,-0.08699 0.136228,-0.506192 0.136228,-1.035391 V 8.7127385 h 1.79368 c 1.243717,0 1.835446,-0.044815 1.929908,-0.146173 0.08107,-0.086992 0.136229,-0.5061924 0.136229,-1.0353913 V 6.6419537 h 2.667813 2.667814 v 0.8892205 c 0,0.5291989 0.05515,0.9483988 0.136228,1.0353913 0.08107,0.086992 0.471754,0.146173 0.964953,0.146173 h 0.828724 v 2.9600055 c 0,2.139809 0.03774,3.000505 0.136231,3.106174 0.191925,0.205935 1.953901,0.19663 2.114624,-0.01118 0.06693,-0.08654 0.137047,-0.53876 0.155804,-1.00494 l 0.03411,-0.847597 0.789935,-0.0366 c 0.434452,-0.02013 0.855911,-0.09535 0.936561,-0.167175 0.09559,-0.08512 0.146637,-0.44345 0.146637,-1.029247 v -0.898666 h 1.793678 c 1.243721,0 1.835451,-0.04482 1.929905,-0.146173 0.08108,-0.08699 0.136233,-0.506193 0.136233,-1.0353937 V 8.7127369 h 1.702858 1.70286 v 3.8979461 3.897948 H 44.1644 c -0.555185,0 -0.879449,0.0542 -0.961884,0.16078 -0.07496,0.09691 -0.136854,0.907433 -0.155802,2.040331 l -0.03144,1.879552 -0.789933,0.0366 c -0.434467,0.02013 -0.855928,0.09536 -0.936578,0.167178 -0.09558,0.08512 -0.146638,0.44345 -0.146638,1.029249 v 0.898666 h -0.828726 c -0.493195,0 -0.883876,0.05919 -0.964952,0.146173 -0.09446,0.101355 -0.136227,0.73628 -0.136227,2.070784 v 1.924612 h -0.828725 c -0.4932,0 -0.883881,0.05918 -0.964955,0.146173 -0.09446,0.101355 -0.136228,0.736281 -0.136228,2.070784 v 1.924611 h -0.828724 c -0.493201,0 -0.883882,0.05918 -0.964955,0.146172 -0.08107,0.08699 -0.136229,0.506193 -0.136229,1.035393 v 0.889219 h -0.828719 c -0.4932,0 -0.883881,0.05918 -0.964953,0.146173 -0.08107,0.08699 -0.136231,0.506192 -0.136231,1.035393 v 0.889219 h -2.667812 -2.667814 v -0.889219 c 0,-0.529201 -0.05515,-0.9484 -0.136229,-1.035393 -0.08107,-0.08699 -0.471754,-0.146173 -0.964954,-0.146173 h -0.828724 v -3.995397 c 0,-2.945114 -0.03582,-4.03382 -0.136229,-4.141569 -0.08353,-0.08963 -0.491938,-0.146172 -1.055773,-0.146172 -0.563836,0 -0.972242,0.05654 -1.055774,0.146172 -0.09446,0.101356 -0.136228,0.736282 -0.136228,2.070785 v 1.924612 h -0.828726 c -0.493198,0 -0.883879,0.05919 -0.964954,0.146172 -0.09446,0.101357 -0.136228,0.736279 -0.136228,2.070785 v 1.924612 h -0.828724 c -0.4932,0 -0.883881,0.05918 -0.964956,0.146173 -0.08108,0.08699 -0.136229,0.506192 -0.136229,1.035393 v 0.889219 h -0.828723 c -0.4932,0 -0.883881,0.05918 -0.964956,0.146172 -0.08108,0.08699 -0.136229,0.506193 -0.136229,1.035392 v 0.88922 h -0.828723 c -0.4932,0 -0.883881,0.05919 -0.964955,0.146172 -0.08107,0.08699 -0.136229,0.506193 -0.136229,1.035392 v 0.889221 h -0.828724 c -0.493199,0 -0.883881,0.05918 -0.964956,0.146172 -0.08107,0.08699 -0.136228,0.506193 -0.136228,1.035392 v 0.88922 H 11.455606 8.7877917 Z"
       id="path1" /></g></svg>
