<?xml version="1.0" encoding="UTF-8" standalone="no"?>
<!-- Created with Inkscape (http://www.inkscape.org/) -->

<svg
   width="120"
   height="120"
   viewBox="0 0 120 120"
   version="1.1"
   id="svg1"
   xml:space="preserve"
   inkscape:version="1.3.2 (091e20e, 2023-11-25, custom)"
   sodipodi:docname="youtube.svg"
   xmlns:inkscape="http://www.inkscape.org/namespaces/inkscape"
   xmlns:sodipodi="http://sodipodi.sourceforge.net/DTD/sodipodi-0.dtd"
   xmlns="http://www.w3.org/2000/svg"
   xmlns:svg="http://www.w3.org/2000/svg"><sodipodi:namedview
     id="namedview1"
     pagecolor="#505050"
     bordercolor="#eeeeee"
     borderopacity="1"
     inkscape:showpageshadow="0"
     inkscape:pageopacity="0"
     inkscape:pagecheckerboard="0"
     inkscape:deskcolor="#505050"
     inkscape:document-units="px"
     inkscape:zoom="2.2486095"
     inkscape:cx="60.037103"
     inkscape:cy="59.814743"
     inkscape:window-width="2560"
     inkscape:window-height="1494"
     inkscape:window-x="-11"
     inkscape:window-y="-11"
     inkscape:window-maximized="1"
     inkscape:current-layer="layer1" /><defs
     id="defs1" /><g
     inkscape:label="Layer 1"
     inkscape:groupmode="layer"
     id="layer1"><path
       style="fill:#ffffff;stroke-width:0.245709;fill-opacity:1"
       d="M 49.675837,102.38235 C 46.175398,102.29781 36.961061,101.9395 27.930533,101.53676 18.33889,101.10898 13.878009,100.3472 9.9679363,98.469282 6.0130122,96.569842 3.5178546,93.505992 2.2668506,89.012972 1.6089494,86.650122 0.63051295,79.852852 0.26908502,75.134397 -0.35834565,66.943205 0.18356495,43.008687 1.1510078,36.182945 2.7162477,25.139461 7.4942354,20.458382 18.57683,19.110565 c 3.788735,-0.460772 16.386391,-1.032779 30.423302,-1.381397 8.065092,-0.200306 13.925928,-0.200306 21.991014,0 14.036918,0.348618 26.634574,0.920625 30.423304,1.381397 11.03611,1.342163 15.81193,5.987085 17.41518,16.937879 0.98527,6.729786 1.54047,31.226018 0.88865,39.208808 -1.24733,15.27619 -3.26138,20.10069 -9.69493,23.22349 -3.85972,1.873488 -8.39068,2.632178 -18.331163,3.069478 -3.175794,0.13971 -8.151414,0.35964 -11.056934,0.48874 -5.706089,0.25353 -25.561243,0.47376 -30.959416,0.34339 z M 63.337116,69.053084 c 8.421588,-4.898843 15.31659,-8.963029 15.322223,-9.031529 0.01238,-0.15027 -30.160701,-17.778392 -30.624207,-17.891702 -0.267248,-0.06531 -0.324971,3.109744 -0.324971,17.875382 0,9.87515 0.07087,17.954821 0.157482,17.954821 0.08662,0 7.047878,-4.008137 15.469473,-8.906972 z"
       id="path1" /></g></svg>
